<svg xmlns="http://www.w3.org/2000/svg" viewBox="0 0 595.3 595.3" enable-background="new 0 0 595.3 595.3"><path fill="#8F8F8F" d="M241.3 206.3l29.8-29.8 78.2 78.2 29.8 29.8-29.8 29.8-78.2 78.2-29.8-29.8 15.3-15.3 62.8-62.8-62.8-62.9-15.3-15.4zm56.3-206.3c82.2 0 156.6 33.3 210.5 87.2s87.2 128.3 87.2 210.5-33.3 156.6-87.2 210.4-128.3 87.2-210.5 87.2-156.6-33.3-210.4-87.2-87.2-128.3-87.2-210.5 33.3-156.6 87.2-210.4c53.8-53.9 128.3-87.2 210.4-87.2zm191.7 105.9c-49.1-49-116.8-79.4-191.7-79.4s-142.6 30.4-191.7 79.4c-49 49.1-79.4 116.8-79.4 191.7s30.4 142.6 79.4 191.7c49.1 49 116.8 79.4 191.7 79.4s142.6-30.4 191.7-79.4c49-49.1 79.4-116.8 79.4-191.7s-30.3-142.6-79.4-191.7z"/></svg>