<svg xmlns="http://www.w3.org/2000/svg" viewBox="287.9 0 383.7 560" enable-background="new 287.9 0 383.7 560"><path fill="#1A1A18" d="M517.4 173.4c9.6-9.6 15.3-22.5 15.3-36.9 0-14.4-5.7-27.3-15.3-36.9-9.6-9.6-22.5-15.3-36.9-15.3s-27.3 5.7-36.9 15.3c-9.6 9.6-15.3 22.5-15.3 36.9 0 14.4 5.7 27.3 15.3 36.9 9.6 9.6 22.5 15.3 36.9 15.3s27.3-5.7 36.9-15.3zm-75.7-37.4c0-10.5 4.3-20.1 11.5-27.3 6.7-7.2 16.8-11.5 27.3-11.5s20.1 4.3 27.3 11.5c7.2 7.2 11.5 16.8 11.5 27.3s-4.3 20.1-11.5 27.3c-6.7 7.2-16.8 11.5-27.3 11.5s-20.1-4.3-27.3-11.5c-7.2-6.7-11.5-16.7-11.5-27.3zm229.4 389.5l-31.6-200.7c-1-9.1-5.3-17.7-11-23.5-5.7-5.7-12.9-9.1-22-9.1h-32.6c3.8-6.7 7.7-13.4 11-20.1 24-45.5 40.7-92 40.7-128.9 0-18.7-3.8-37.4-11-55.1-6.7-16.8-17.2-32.6-31.1-46.5l-1.9-1.9c-27.8-26.3-63.8-39.7-99.7-39.7-36.9 0-73.8 13.9-102 41.2-1.4 1.9-3.4 3.4-5.3 5.3-50.3 50.8-40.7 125-11 193.5 7.7 18.2 16.3 35.4 25.9 52.2h-33.5c-9.1 0-16.3 3.8-22 9.6-6.2 5.7-10.1 13.9-11.5 23l-34 200.7c-.5 1.4-.5 2.9-.5 4.3 0 7.7 3.4 14.9 8.6 20.1 4.8 5.3 12 8.6 19.2 10.1 1.9.5 3.8.5 5.7.5h316.2c1.4 0 3.4 0 5.3-.5 7.7-1.4 14.4-4.8 19.6-10.1 5.7-5.3 9.1-12.5 9.1-20.1-.1-1.4-.6-2.9-.6-4.3zm-295.1-290.3c-27.3-64.7-36.8-133.2 8.7-179.2 1.4-1.4 2.9-3.4 4.8-4.8 25.4-25.4 58.9-37.8 92.5-37.8 33.5 0 67.1 12.5 92.5 37.8 12.5 12.5 22 26.8 28.3 42.2 6.7 15.8 10.1 33.1 11 49.8-.5 34.5-16.8 79-39.3 122.6-27.3 51.7-63.2 101.6-92 131.7-1.9-1.4-3.4-3.4-5.3-5.3-26.9-29.6-73.4-90.9-101.2-157zm282.7 295.1c0 3.8-1.9 7.7-4.8 10.5-3.4 3.4-7.7 5.3-12.5 6.2h-319.5l-3.4-.5c-4.3-1-8.6-2.9-12-6.2-2.9-2.9-4.8-6.7-4.8-10.5v-1.9l34-200.7c1-6.7 3.8-12.5 7.7-16.3 2.9-3.4 7.2-5.3 12.5-5.3h41.2c24.4 40.7 51.7 75.2 69.5 95.3 3.4 4.3 7.2 8.1 10.1 11l4.8 4.8 4.8-4.8c24.4-24 54.6-63.2 80-105.4h40.2c5.3 0 9.6 1.9 12.9 5.3 3.8 3.8 6.7 9.6 7.7 15.8l31.6 200.7v2zm-91.5-68.5h-171.5c-3.8 0-6.7 2.9-6.7 6.7s2.9 6.7 6.7 6.7h171.5c3.8 0 6.7-2.9 6.7-6.7s-2.9-6.7-6.7-6.7z"/></svg>