<svg xmlns="http://www.w3.org/2000/svg" viewBox="420 0 1079.8 1080" enable-background="new 420 0 1079.8 1080"><g><path fill="#FEFEFE" d="M1391.9 0h-864c-59.3 0-107.9 48.6-107.9 107.9v863.9c0 59.3 48.6 107.9 107.9 107.9h863.9c59.3 0 107.9-48.6 107.9-107.9v-863.9c.3-59.3-48.3-107.9-107.8-107.9zm-432 324c118.8 0 216.1 97.2 216.1 216.1s-97.2 216.1-216.1 216.1-216.1-97.2-216.1-216.1 97.5-216.1 216.1-216.1zm-404.9 647.9c-16.1 0-27-10.9-27-27v-459h113.4c-5.4 16.1-5.4 37.7-5.4 54.1 0 178.2 145.9 324 324 324s324-145.9 324-324c0-16.1 0-37.7-5.4-54.1h113.4v459c0 16.1-10.9 27-27 27h-810zm836.9-729c0 16.1-10.9 27-27 27h-107.9c-16.1 0-27-10.9-27-27v-107.9c0-16.1 10.9-27 27-27h107.9c16.1 0 27 10.9 27 27v107.9z"/></g></svg>