<svg xmlns="http://www.w3.org/2000/svg" viewBox="0 0 566.9 547.7" enable-background="new 0 0 566.9 547.7"><path fill="#FEFEFE" d="M499.8 94.3c-48-55.3-114.6-88.5-187.6-93.6-73-5.1-143.6 18.5-198.8 66.4-17.4 15.1-32.8 32.3-45.8 51-5.4 7.8-3.4 18.5 4.3 23.8 7.8 5.4 18.5 3.5 23.9-4.3 11.4-16.4 24.8-31.5 40.1-44.7 48.3-41.9 110.1-62.5 173.9-58 63.9 4.5 122.1 33.6 164.1 81.9s62.6 110.1 58.1 173.9c-4.5 63.8-33.6 122.1-81.9 164.1-48.3 42-110.1 62.6-174 58.1-63.8-4.5-122.1-34.2-164.1-82.5-36.5-42-57-96-58.4-151.3h11.9c6.7 0 9.2-4 5.7-9.6l-28.4-45.5c-3.5-5.7-9.3-5.5-12.8.1l-28.4 45.2c-3.5 5.6-.9 9.7 5.8 9.7h12c1.5 64.5 24.9 125.6 66.9 173.8 48 55.2 114.6 88.8 187.6 93.9 6.5.5 13.1.8 19.6.8 65.9 0 128.9-23.4 179.2-67 55.2-48 88.5-114.6 93.6-187.5 5.1-72.9-18.6-143.5-66.5-198.7z"/></svg>