<svg xmlns="http://www.w3.org/2000/svg" viewBox="0 0 595.3 610.6" enable-background="new 0 0 595.3 610.6"><path fill="#FEFEFE" d="M569 435.6c-15.5-14.2-37.4-26.9-65-37.6-24.9-9.7-53.5-17.4-84.5-23-3.8 6.1-7.7 12.2-11.7 18.5-.7 1-1.4 2.1-2 3.2 33.2 5.4 63.6 13.2 89.7 23.4 48.4 18.8 76.1 43.4 76.1 67.5s-27.8 48.7-76.1 67.5c-52.6 20.5-122.9 31.7-197.8 31.7s-145.1-11.3-197.8-31.7c-48.4-18.8-76.1-43.4-76.1-67.5s27.8-48.7 76.1-67.5c27.7-10.8 60.3-19 95.8-24.3l-1.4-2.2c-4.3-6.7-8.4-13.2-12.4-19.6-33.4 5.6-64.1 13.7-90.7 24-27.6 10.7-49.5 23.4-65 37.6-17.4 16.1-26.2 33.6-26.2 52s8.8 35.9 26.3 52c15.5 14.2 37.3 26.9 65 37.6 55.3 21.5 128.6 33.3 206.4 33.3s151.1-11.8 206.4-33.3c27.6-10.7 49.5-23.4 65-37.6 17.5-16 26.3-33.5 26.3-52s-9-36-26.4-52zm-138.8 49.2c0-21-25.6-34.9-59.8-42.4-5.2 7.5-10.1 14.5-14.9 21.2 9 1.6 17.4 3.6 24.8 6 21.5 6.9 26.1 14.1 26.1 15.2s-4.5 8.3-26.1 15.2c-16.1 5.2-36.4 8.5-58.6 9.8 0 0 0 .1-.1.1-6.7.4-13.7.6-20.7.6-7.4 0-14.7-.2-21.8-.7l-.1-.1c-21.7-1.3-41.6-4.7-57.4-9.8-21.5-6.9-26.1-14.1-26.1-15.2s4.5-8.3 26.1-15.2c7.2-2.3 15.2-4.2 23.8-5.8-4.7-6.7-9.7-13.7-14.9-21.2-33.5 7.7-58.5 21.5-58.5 42.3v.1c0 33.9 66.9 49.4 129.1 49.4s129.1-15.4 129.1-49.4v-.1zm-129.2 5.5l-9.4-12c-.4-.5-41.3-53.1-81.6-116-54.9-85.7-82.8-149.2-82.8-188.5 0-23.4 4.6-46.2 13.7-67.6 8.7-20.7 21.3-39.3 37.2-55.2 15.9-16 34.5-28.5 55.2-37.2 21.6-9.2 44.3-13.8 67.7-13.8s46.2 4.6 67.6 13.7c20.7 8.7 39.3 21.3 55.2 37.2 15.9 15.9 28.5 34.5 37.2 55.2 9.1 21.4 13.7 44.2 13.7 67.6 0 39.4-27.9 102.8-82.8 188.5-40.3 62.9-81.1 115.5-81.5 116l-9.4 12.1zm0-466.6c-82.7 0-150 67.3-150 150 0 34.3 27.3 95 79 175.7 28.2 44 56.7 82.9 70.9 101.9 14.3-19 42.8-58 71-102 51.6-80.6 78.9-141.4 78.9-175.6.2-82.7-67.1-150-149.8-150zm0 208c-34.9 0-63.3-28.4-63.3-63.3s28.4-63.3 63.3-63.3 63.3 28.4 63.3 63.3-28.4 63.3-63.3 63.3zm0-102.8c-21.8 0-39.5 17.7-39.5 39.6 0 21.8 17.7 39.5 39.5 39.5s39.5-17.7 39.5-39.5c.1-21.9-17.7-39.6-39.5-39.6z"/></svg>