<svg xmlns="http://www.w3.org/2000/svg" viewBox="0 0 80 118.5" enable-background="new 0 0 80 118.5"><path fill-rule="evenodd" clip-rule="evenodd" fill="#1A1A18" d="M25.9 0c1.8 0 3.4.7 4.5 1.9.9.9 1.5 2 1.8 3.3h4.2v-2.3c0-.7.3-1.3.7-1.7.4-.4 1.1-.7 1.7-.7h38.8c.7 0 1.3.3 1.7.7.5.4.7 1 .7 1.7v7.1c0 .7-.3 1.3-.7 1.7-.4.4-1.1.7-1.7.7h-6.2v2.9h2.4c1.7 0 3.3.7 4.4 1.8 1.1 1.1 1.8 2.7 1.8 4.4v13.8c0 1.7-.7 3.3-1.8 4.4-1.1 1.1-2.7 1.8-4.4 1.8h-2.4v2.9h6.1c.7 0 1.3.3 1.7.7.4.4.7 1.1.7 1.7v7.1c0 .7-.3 1.3-.7 1.7-.4.4-1.1.7-1.7.7h-45.5v5.2c1.1.3 2.1.9 3 1.7 1.2 1.2 2 2.9 2 4.8v22.2c0 1.9-.8 3.6-2 4.8-.8.8-1.8 1.4-3 1.7-.1 3-.5 6.4-1.3 10-.8 3.6-2 7.3-3.5 10.8-.3.7-1.1 1-1.8.7-.3-.1-.5-.4-.7-.7-1.4-3-2.6-6.8-3.5-10.6-.8-3.6-1.3-7.2-1.4-10.2-1.1-.3-2.2-.9-3-1.7-1.2-1.2-2-2.9-2-4.8v-22c0-1.9.8-3.6 2-4.8.8-.8 1.8-1.4 3-1.7v-5.2h-3c-.7 0-1.3-.3-1.7-.7-.4-.4-.7-1.1-.7-1.7v-2.4h-3.8v2.5c0 .6-.3 1.2-.7 1.6-.4.4-1 .7-1.6.7h-3c-1.5 0-2.8-.6-3.7-1.6-1-1-1.6-2.3-1.6-3.7v-1.5c0-1.4.6-2.7 1.6-3.7s2.3-1.6 3.7-1.6h3c.6 0 1.2.3 1.6.7.4.4.7 1 .7 1.6v2.1h3.8v-2c0-.7.3-1.3.7-1.7.4-.4 1.1-.7 1.7-.7h3v-2.1c0-1.7.7-3.2 1.8-4.3.8-.8 1.8-1.4 3-1.6v-23.7c-1.2-.3-2.3-.9-3.2-1.7-1.2-1.2-1.9-2.8-1.9-4.5 0-1.8.7-3.4 1.9-4.5 1.1-1.3 2.7-2 4.5-2zm6.2 8c-.3 1.2-.9 2.2-1.7 3-.9.9-1.9 1.5-3.2 1.7v23.7c1.1.3 2.2.8 3 1.6 1.1 1.1 1.8 2.6 1.8 4.3v2.1h13v-2.9h-2.4c-1.7 0-3.3-.7-4.4-1.8-1.1-1.1-1.8-2.7-1.8-4.4v-13.7c0-1.7.7-3.3 1.8-4.4 1.1-1.1 2.7-1.8 4.4-1.8h2.4v-2.9h-6.2c-.7 0-1.3-.3-1.7-.7-.4-.4-.7-1.1-.7-1.7v-2.1h-4.3zm36.5 33.6h-2.6c-1.7 0-3.3-.7-4.4-1.8-1.1-1.1-1.8-2.7-1.8-4.4v-13.8c0-1.7.7-3.3 1.8-4.4 1.1-1.1 2.7-1.8 4.4-1.8h2.5v-2.9h-20.7v2.9h2.5c1.7 0 3.3.7 4.4 1.8 1.1 1.1 1.8 2.7 1.8 4.4v13.8c0 1.7-.7 3.3-1.8 4.4-1.1 1.1-2.7 1.8-4.4 1.8h-2.5v2.9h20.8v-2.9zm-39.4 2.9v-2.1c0-.9-.4-1.8-1-2.4-.6-.6-1.5-1-2.4-1-.9 0-1.8.4-2.4 1-.6.6-1 1.5-1 2.4v2.1h6.8zm0 16.9v-4.9h-6.7v4.9h6.7zm-6.7 35.8c.1 2.7.6 6 1.3 9.3.5 2.4 1.2 4.8 2 7 .9-2.4 1.6-4.8 2.1-7.2.7-3.2 1.1-6.4 1.2-9.2h-6.6v.1zm7.7-33h-8.6c-1.1 0-2.1.5-2.8 1.2-.7.7-1.2 1.7-1.2 2.8v22.2c0 1.1.4 2.1 1.2 2.8.7.7 1.7 1.2 2.8 1.2h8.6c1.1 0 2.1-.5 2.8-1.2.7-.7 1.2-1.7 1.2-2.8v-22.2c0-1.1-.5-2.1-1.2-2.8-.7-.7-1.7-1.2-2.8-1.2zm-22.4-17h-2.5c-.7 0-1.3.3-1.8.7-.5.5-.7 1.1-.7 1.8v1.5c0 .7.3 1.3.7 1.8.5.5 1.1.7 1.8.7h2.5v-6.5zm69.4 0h-60.1v6.5h60.1v-6.5zm-3.5-29.1h-7.7c-.9 0-1.8.4-2.4 1-.6.6-1 1.5-1 2.4v13.8c0 .9.4 1.8 1 2.4.6.6 1.5 1 2.4 1h7.7c.9 0 1.8-.4 2.4-1 .6-.6 1-1.5 1-2.4v-13.7c0-.9-.4-1.8-1-2.4-.5-.7-1.4-1.1-2.4-1.1zm-23.4 0h-7.7c-.9 0-1.8.4-2.4 1-.6.6-1 1.5-1 2.4v13.8c0 .9.4 1.8 1 2.4.6.6 1.5 1 2.4 1h7.7c.9 0 1.8-.4 2.4-1 .6-.6 1-1.5 1-2.4v-13.7c0-.9-.4-1.8-1-2.4-.6-.7-1.5-1.1-2.4-1.1zm27-14.9h-38.2v6.5h38.1v-6.5h.1zm-48.8.6c-.7-.7-1.6-1.1-2.6-1.1s-1.9.4-2.6 1.1-1.1 1.6-1.1 2.6.4 1.9 1.1 2.6 1.6 1.1 2.6 1.1 1.9-.4 2.6-1.1c.7-.7 1.1-1.6 1.1-2.6-.1-1-.5-1.9-1.1-2.6z"/></svg>