<?xml version="1.0" encoding="UTF-8"?>
<!DOCTYPE svg PUBLIC "-//W3C//DTD SVG 1.1//EN" "http://www.w3.org/Graphics/SVG/1.1/DTD/svg11.dtd">
<!-- Creator: CorelDRAW X8 -->
<svg xmlns="http://www.w3.org/2000/svg" xml:space="preserve" width="210mm" height="297mm" version="1.1" style="shape-rendering:geometricPrecision; text-rendering:geometricPrecision; image-rendering:optimizeQuality; fill-rule:evenodd; clip-rule:evenodd"
viewBox="0 0 21000 29700"
 xmlns:xlink="http://www.w3.org/1999/xlink"
 enable-background="new 0 0 80.3 117.9">
 <defs>
  <style type="text/css">
   <![CDATA[
    .fil0 {fill:#1A1A18}
   ]]>
  </style>
 </defs>
 <g id="portfolio">
  <metadata id="CorelCorpID_0Corel-Layer"/>
  <path class="fil0" d="M3081 0l16803 0c201,0 403,76 529,227 126,126 201,327 201,529l0 28188c0,202 -75,403 -227,529 -126,126 -327,227 -529,227l-16777 0c-730,0 -1410,-302 -1889,-781 -479,-479 -781,-1159 -781,-1889 0,-8111 0,-16223 0,-24335 0,-730 302,-1410 781,-1889 479,-479 1134,-806 1889,-806l0 0zm7558 12192l1435 0 0 0c76,0 126,26 202,51 101,50 201,101 277,176 76,76 126,176 176,277 51,101 51,202 51,302l0 933c0,176 -25,327 -101,478 -50,151 -151,302 -277,403l-25 25c-580,202 -1184,403 -1764,605l26 -3250zm0 4132l277 -101c277,-101 100,-25 277,-101l0 0c226,-75 378,-151 554,-201 227,-76 453,-152 605,-227l151 0c75,0 126,25 201,50 101,51 202,101 277,177 76,75 126,176 177,277 50,100 50,201 50,302l0 1915c0,176 -25,327 -101,478 -75,151 -151,302 -277,403 -126,126 -252,202 -403,277 -151,51 -302,101 -479,101l-1309 0 0 -3350zm2896 4232l0 0c429,0 832,-76 1210,-252 378,-177 730,-403 1032,-706 303,-302 529,-629 681,-1032 151,-378 252,-781 252,-1210 0,-428 -76,-831 -252,-1209 -152,-378 -403,-730 -681,-1032l0 0c-75,-76 -151,-126 -226,-202 -76,-76 -151,-126 -227,-176l-126 -76 126 -101c101,-75 176,-151 252,-252 76,-75 126,-176 201,-277 177,-327 252,-705 177,-1083 -51,-353 -227,-705 -504,-1008 -202,-201 -428,-352 -680,-453 -252,-101 -504,-151 -781,-151 -2368,0 -4736,0 -7104,0l454 957 0 7305 -454 958c2217,0 4434,0 6650,0zm-5340 -857l0 -7507 1587 0 0 7507c-529,0 -1058,0 -1587,0zm5416 -5617c0,-51 0,-101 0,-151l0 -933c0,-125 0,-226 -25,-327 -25,-101 -50,-227 -101,-327l-75 -152 529 0 50 0 25 0c25,0 25,0 25,0 277,0 529,126 731,303 176,176 302,428 302,730 0,227 -75,454 -201,605 -232,324 -902,489 -1285,604l25 -176c0,-76 0,-126 0,-176l0 0zm328 1889c-76,-176 -177,-353 -303,-504l-126 -126c215,-61 488,-112 680,-176l26 0c176,50 352,126 503,227 152,100 303,226 454,352 227,227 378,479 504,756 126,277 176,579 176,882 0,302 -75,604 -176,881 -126,277 -303,555 -504,756l0 0c-176,176 -378,328 -605,428 -226,101 -453,177 -705,227l-252 25 126 -201c101,-151 176,-328 227,-504 50,-176 75,-353 75,-554l0 -1915c0,-201 -25,-378 -100,-554zm6020 8363l-16903 0c-730,0 -1411,303 -1889,781 -26,26 -51,52 -76,79l0 -22499c0,-554 227,-1058 580,-1410 377,-353 856,-580 1410,-580l9598 0 0 5895 0 0c0,101 25,176 101,252 151,126 378,126 504,0l1511 -1486 1386 1461c75,75 176,126 277,126 201,0 352,-151 352,-353l0 -5895c1042,0 2083,0 3124,0 25,26 25,26 25,51l0 23578zm-18868 2671c0,-555 227,-1033 580,-1411 352,-353 856,-579 1410,-579l16878 0 0 3929c0,25 -25,51 -25,51 -25,25 -25,25 -50,25l-16803 0c-554,0 -1058,-227 -1410,-580 -353,-377 -580,-856 -580,-1410l0 -25zm12293 -26300l0 5064 1184 -1159c151,-126 353,-126 504,25l1033 1109 0 -5039 -2721 0z"/>
 </g>
</svg>
