<?xml version="1.0" encoding="utf-8"?>
<!-- Generator: Adobe Illustrator 17.1.0, SVG Export Plug-In . SVG Version: 6.00 Build 0)  -->
<!DOCTYPE svg PUBLIC "-//W3C//DTD SVG 1.1//EN" "http://www.w3.org/Graphics/SVG/1.1/DTD/svg11.dtd" [
	<!ENTITY ns_extend "http://ns.adobe.com/Extensibility/1.0/">
	<!ENTITY ns_ai "http://ns.adobe.com/AdobeIllustrator/10.0/">
	<!ENTITY ns_graphs "http://ns.adobe.com/Graphs/1.0/">
	<!ENTITY ns_vars "http://ns.adobe.com/Variables/1.0/">
	<!ENTITY ns_imrep "http://ns.adobe.com/ImageReplacement/1.0/">
	<!ENTITY ns_sfw "http://ns.adobe.com/SaveForWeb/1.0/">
	<!ENTITY ns_custom "http://ns.adobe.com/GenericCustomNamespace/1.0/">
	<!ENTITY ns_adobe_xpath "http://ns.adobe.com/XPath/1.0/">
]>
<svg version="1.1" id="Layer_1" xmlns:x="&ns_extend;" xmlns:i="&ns_ai;" xmlns:graph="&ns_graphs;"
	 xmlns="http://www.w3.org/2000/svg" xmlns:xlink="http://www.w3.org/1999/xlink" x="0px" y="0px" width="595.3px" height="841.9px"
	 viewBox="0 0 595.3 841.9" enable-background="new 0 0 595.3 841.9" xml:space="preserve">
<metadata  id="CorelCorpID_0Corel-Layer">
	<sfw  xmlns="&ns_sfw;">
		<slices></slices>
		<sliceSourceBounds  width="572.7" height="841.9" bottomLeftOrigin="true" x="-182.8" y="-320.9"></sliceSourceBounds>
	</sfw>
</metadata>
<path fill="#1A1A18" d="M466.5,457.7c-4.3-10.7-11.4-20.7-19.3-29.3c-2.1-2.2-4.3-3.6-6.4-5.7c-2.2-2.2-4.3-3.6-6.4-5l-3.6-2.2
	l3.6-2.9c2.9-2.1,5-4.3,7.1-7.1c2.2-2.1,3.6-5,5.7-7.9c5-9.3,7.1-20,5-30.7c-1.4-10-6.4-20-14.3-28.6c-5.7-5.7-12.1-10-19.3-12.8
	c-7.1-2.9-14.3-4.3-22.1-4.3c-67.1,0-134.2,0-201.4,0l12.9,27.1v207.1l-12.9,27.2c62.8,0,125.7,0,188.5,0c12.2,0,23.6-2.2,34.3-7.1
	c10.7-5,20.7-11.4,29.3-20c8.6-8.6,15-17.8,19.3-29.3c4.3-10.7,7.1-22.1,7.1-34.3C473.7,479.8,471.5,468.4,466.5,457.7z
	 M277.3,558.4c-15,0-30,0-45,0V345.6h45V558.4z M301.6,345.6h40.7c2.2,0,3.6,0.7,5.7,1.4c2.9,1.4,5.7,2.9,7.9,5c2.2,2.2,3.6,5,5,7.9
	c1.4,2.9,1.4,5.7,1.4,8.6v26.4c0,5-0.7,9.3-2.9,13.5c-1.4,4.3-4.3,8.6-7.9,11.4l-0.7,0.7c-16.4,5.7-33.6,11.4-50,17.1L301.6,345.6z
	 M374.4,522c0,5-0.7,9.3-2.9,13.5c-2.1,4.3-4.3,8.6-7.9,11.4c-3.6,3.6-7.1,5.7-11.4,7.9c-4.3,1.4-8.6,2.9-13.6,2.9h-37.1v-95
	l7.9-2.9c7.9-2.9,2.8-0.7,7.9-2.9c6.4-2.1,10.7-4.3,15.7-5.7c6.4-2.2,12.8-4.3,17.1-6.4h4.3c2.1,0,3.6,0.7,5.7,1.4
	c2.9,1.4,5.7,2.9,7.9,5c2.2,2.1,3.6,5,5,7.9c1.4,2.8,1.4,5.7,1.4,8.6V522z M380.1,345.6h15h1.4h0.7c0.7,0,0.7,0,0.7,0
	c7.9,0,15,3.6,20.7,8.6c5,5,8.6,12.1,8.6,20.7c0,6.4-2.1,12.9-5.7,17.1c-6.6,9.2-25.6,13.9-36.4,17.1l0.7-5c0-2.2,0-3.6,0-5
	c0-1.4,0-2.9,0-4.3v-26.4c0-3.5,0-6.4-0.7-9.3c-0.7-2.9-1.4-6.4-2.9-9.3L380.1,345.6z M444.4,517.7c-3.6,7.9-8.6,15.7-14.3,21.4
	c-5,5-10.7,9.3-17.1,12.1c-6.4,2.9-12.8,5-20,6.4l-7.1,0.7l3.6-5.7c2.9-4.3,5-9.3,6.4-14.3c1.4-5,2.1-10,2.1-15.7v-54.3
	c0-5.7-0.7-10.7-2.8-15.7c-2.2-5-5-10-8.6-14.3l-3.6-3.6c6.1-1.7,13.8-3.2,19.3-5h0.7c5,1.4,10,3.6,14.3,6.4
	c4.3,2.8,8.6,6.4,12.9,10c6.4,6.4,10.7,13.6,14.3,21.4c3.6,7.9,5,16.4,5,25C449.4,501.3,447.3,509.8,444.4,517.7z"/>
<path fill="none" d="M476.5,20v167.1c0,5.7-4.3,10-10,10c-2.9,0-5.7-1.4-7.9-3.6l-39.3-41.4l-42.8,42.1c-3.6,3.6-10,3.6-14.3,0
	c-2.2-2.2-2.9-4.3-2.9-7.1V20H87.3c-15.7,0-29.3,6.4-40,16.4c-10,10-16.4,24.3-16.4,40v637.8c0.7-0.8,1.4-1.5,2.2-2.2
	c13.5-13.5,32.9-22.1,53.5-22.1h479.1V21.4c0-0.7,0-0.7-0.7-1.4C535.5,20,506,20,476.5,20z"/>
<path fill="#1A1A18" d="M582.2,6.4c-3.6-4.3-9.3-6.4-15-6.4H90.9C69.5,0,51,9.3,37.4,22.8S15.2,55.7,15.2,76.4
	c0,229.9,0,459.9,0,689.8c0,20.7,8.6,40,22.1,53.5s32.9,22.1,53.5,22.1h475.6c5.7,0,11.4-2.9,15-6.4c4.3-3.6,6.4-9.3,6.4-15v-799
	C587.9,15.7,585.8,10,582.2,6.4z M383,20h77.1v142.8l-29.3-31.4c-4.3-4.3-10-4.3-14.3-0.7L383,163.5V20z M565.8,820.5
	c0,0.7-0.7,1.4-0.7,1.4c-0.7,0.7-0.7,0.7-1.4,0.7H87.3c-15.7,0-30-6.4-40-16.4c-10-10.7-16.4-24.3-16.4-40v-0.7
	c0-15.7,6.4-29.3,16.4-40c10-10,24.3-16.4,40-16.4h478.4V820.5z M569.4,689.8H90.2c-20.7,0-40,8.6-53.5,22.1
	c-0.7,0.7-1.4,1.5-2.2,2.2V76.4c0-15.7,6.4-30,16.4-40c10.7-10,24.3-16.4,40-16.4H363v167.1c0,2.9,0.7,5,2.9,7.1
	c4.3,3.6,10.7,3.6,14.3,0l42.8-42.1l39.3,41.4c2.1,2.1,5,3.6,7.9,3.6c5.7,0,10-4.3,10-10V20c29.5,0,59,0,88.6,0
	c0.7,0.7,0.7,0.7,0.7,1.4V689.8z"/>
</svg>
