<?xml version="1.0" encoding="UTF-8"?>
<!DOCTYPE svg PUBLIC "-//W3C//DTD SVG 1.1//EN" "http://www.w3.org/Graphics/SVG/1.1/DTD/svg11.dtd">
<!-- Creator: CorelDRAW X8 -->
<svg xmlns="http://www.w3.org/2000/svg" xml:space="preserve" width="210mm" height="286.155mm" version="1.1" style="shape-rendering:geometricPrecision; text-rendering:geometricPrecision; image-rendering:optimizeQuality; fill-rule:evenodd; clip-rule:evenodd"
viewBox="0 0 21000 28615"
 xmlns:xlink="http://www.w3.org/1999/xlink"
 enable-background="new 0 0 86.3 117.6">
 <defs>
  <style type="text/css">
   <![CDATA[
    .fil0 {fill:#1A1A18}
   ]]>
  </style>
 </defs>
 <g id="service">
  <metadata id="CorelCorpID_0Corel-Layer"/>
  <path class="fil0" d="M2214 2651l15355 0c438,0 827,171 1119,463 292,292 463,681 463,1119l0 1119 997 0c0,0 0,0 0,0 0,0 0,0 0,0l0 -4672c0,0 0,0 0,0 0,0 0,0 0,0l-19467 0c0,0 0,0 0,0 0,0 0,0 0,0l0 4672c0,0 0,0 0,0 0,0 0,0 0,0l2434 0 0 -1143c0,-244 -98,-463 -268,-633 -170,-170 -389,-268 -633,-268l0 -657 0 0zm9661 5427l414 0c486,0 949,194 1265,535 316,317 535,779 535,1266 0,486 -194,949 -535,1265 -316,316 -779,535 -1265,535l-413 0 -1 0 -1387 0 0 828 1922 0c195,0 341,146 341,340 0,195 -146,341 -341,341l-1922 0 0 876c0,195 -146,341 -341,341 -195,0 -341,-146 -341,-341l0 -876 -705 0c-195,0 -341,-146 -341,-341 0,-194 146,-340 341,-340l705 0 0 -828 -705 0c-195,0 -341,-146 -341,-340 0,-195 146,-341 341,-341l705 0 0 -2287 -705 0c-195,0 -341,-136 -341,-317 0,-181 146,-316 341,-316l997 0 1777 0 0 0zm-1387 2920l1801 0c316,0 584,-122 803,-341 194,-194 340,-486 340,-803 0,-316 -121,-584 -340,-803 -195,-194 -487,-340 -803,-340l-414 0 0 0 -1387 0 0 2287zm2166 9733c194,0 340,146 340,341 0,195 -146,341 -340,341l-6473 0c-195,0 -341,-146 -341,-341 0,-195 146,-341 341,-341l6473 0zm2238 -1727c195,0 341,146 341,340 0,195 -146,341 -341,341l-8711 0c-195,0 -341,-146 -341,-341 0,-194 146,-340 341,-340l8711 0zm-3674 -13335c1460,0 2798,584 3772,1557 973,973 1557,2288 1557,3772 0,1460 -584,2798 -1557,3772 -974,973 -2288,1557 -3772,1557 -1460,0 -2799,-584 -3772,-1557 -973,-974 -1557,-2288 -1557,-3772 0,-1460 584,-2799 1557,-3772 973,-973 2312,-1557 3772,-1557l0 0zm3285 2044c-852,-852 -1995,-1363 -3285,-1363 -1290,0 -2434,511 -3285,1363 -852,851 -1363,1995 -1363,3285 0,1290 511,2433 1363,3285 851,852 1995,1363 3285,1363 1290,0 2433,-511 3285,-1363 852,-852 1363,-1995 1363,-3285 0,-1290 -511,-2458 -1363,-3285zm-3504 16766l-4721 0c-195,0 -365,73 -487,194 -121,122 -194,292 -194,487l0 754 0 463 0 657c0,243 -98,462 -268,632 -156,156 -353,272 -572,290l-61 2c-243,0 -462,-97 -632,-267 -171,-171 -268,-390 -268,-633l0 -2312 0 -18201 0 -2312c0,-347 -107,-663 -296,-925l14093 0c244,0 463,98 633,268 170,170 268,389 268,633l0 20270 -2896 0 -4599 0 0 0zm-4721 1435l0 -754c0,0 0,0 0,0 0,0 0,0 0,0l4721 0 4599 0 4721 0c0,0 0,0 0,0 0,0 0,0 0,0l0 754 0 463 0 657c0,243 -98,462 -268,632 -170,171 -389,268 -633,268l-13419 0c179,-257 279,-564 279,-900l0 -657 0 -463 0 0zm-1582 2701l14722 0 25 0 0 0c428,-6 808,-175 1095,-462 292,-292 462,-681 462,-1119l0 -657 0 -463 0 -754c0,-195 -73,-365 -195,-487 -121,-121 -292,-194 -486,-194l-1168 0 0 -18445 997 0c195,0 365,-73 487,-195 122,-122 195,-292 195,-487l0 -4672c0,-194 -73,-365 -195,-486 -122,-122 -292,-195 -487,-195l-19467 0c-194,0 -365,73 -486,195 -122,121 -195,292 -195,486l0 4672c0,195 73,365 195,487 121,122 292,195 486,195l2434 0 0 511 0 18201 0 2288c0,438 170,827 462,1119 292,292 681,462 1119,462l0 0z"/>
 </g>
</svg>
