<?xml version="1.0" encoding="utf-8"?>
<!-- Generator: Adobe Illustrator 17.1.0, SVG Export Plug-In . SVG Version: 6.00 Build 0)  -->
<!DOCTYPE svg PUBLIC "-//W3C//DTD SVG 1.1//EN" "http://www.w3.org/Graphics/SVG/1.1/DTD/svg11.dtd" [
	<!ENTITY ns_extend "http://ns.adobe.com/Extensibility/1.0/">
	<!ENTITY ns_ai "http://ns.adobe.com/AdobeIllustrator/10.0/">
	<!ENTITY ns_graphs "http://ns.adobe.com/Graphs/1.0/">
	<!ENTITY ns_vars "http://ns.adobe.com/Variables/1.0/">
	<!ENTITY ns_imrep "http://ns.adobe.com/ImageReplacement/1.0/">
	<!ENTITY ns_sfw "http://ns.adobe.com/SaveForWeb/1.0/">
	<!ENTITY ns_custom "http://ns.adobe.com/GenericCustomNamespace/1.0/">
	<!ENTITY ns_adobe_xpath "http://ns.adobe.com/XPath/1.0/">
]>
<svg version="1.1" id="Layer_1" xmlns:x="&ns_extend;" xmlns:i="&ns_ai;" xmlns:graph="&ns_graphs;"
	 xmlns="http://www.w3.org/2000/svg" xmlns:xlink="http://www.w3.org/1999/xlink" x="0px" y="0px" width="595.3px" height="811.1px"
	 viewBox="0 0 595.3 811.1" enable-background="new 0 0 595.3 811.1" xml:space="preserve">
<metadata  id="CorelCorpID_0Corel-Layer">
	<sfw  xmlns="&ns_sfw;">
		<slices></slices>
		<sliceSourceBounds  width="595.3" height="811.2" bottomLeftOrigin="true" x="-198" y="-305.1"></sliceSourceBounds>
	</sfw>
</metadata>
<path fill="none" d="M311.8,693.9h130.4h82.1V119.3c0-6.9-2.8-13.1-7.6-17.9s-11-7.6-17.9-7.6H99.2c5.4,7.4,8.4,16.4,8.4,26.2v65.5
	v515.9V767c0,6.9,2.7,13.1,7.6,17.9c4.8,4.8,11,7.6,17.9,7.6l1.7-0.1c6.2-0.5,11.8-3.8,16.2-8.2c4.8-4.8,7.6-11,7.6-17.9v-18.6
	v-13.1v-21.4c0-5.5,2.1-10.3,5.5-13.8c3.5-3.4,8.3-5.5,13.8-5.5H311.8z M211.1,204.8c27.6-27.6,65.5-44.1,106.9-44.1
	c41.4,0,79.3,16.6,106.9,44.1c27.6,27.6,44.1,64.9,44.1,106.9c0,41.4-16.6,79.3-44.1,106.9c-27.6,27.6-64.9,44.1-106.9,44.1
	c-41.4,0-79.3-16.6-106.9-44.1c-27.6-27.6-44.1-64.9-44.1-106.9C166.9,270.4,183.5,232.4,211.1,204.8z M175.2,538.7h246.9
	c5.5,0,9.7,4.1,9.7,9.6c0,5.5-4.1,9.7-9.7,9.7H175.2c-5.5,0-9.7-4.1-9.7-9.7C165.5,542.8,169.7,538.7,175.2,538.7z M165.5,597.3
	c0-5.5,4.1-9.7,9.7-9.7h183.5c5.5,0,9.6,4.1,9.6,9.7c0,5.5-4.1,9.7-9.6,9.7H175.2C169.7,607,165.5,602.9,165.5,597.3z"/>
<path fill="none" d="M318,443.5c36.6,0,69-14.5,93.1-38.6s38.6-56.6,38.6-93.1c0-36.6-14.5-69.7-38.6-93.1
	C387,194.5,354.6,180,318,180c-36.6,0-69,14.5-93.1,38.6c-24.2,24.1-38.6,56.6-38.6,93.1c0,36.6,14.5,69,38.6,93.1
	C249,429,281.4,443.5,318,443.5z M258,331.1c-5.5,0-9.7-4.1-9.7-9.6c0-5.5,4.1-9.7,9.7-9.7h20v-64.8h-20c-5.5,0-9.7-3.9-9.7-9
	c0-5.1,4.1-9,9.7-9h28.3h50.4h11.7c13.8,0,26.9,5.5,35.9,15.2c9,9,15.2,22.1,15.2,35.9c0,13.8-5.5,26.9-15.2,35.9
	c-9,9-22.1,15.2-35.9,15.2h-11.7h0h-39.3v23.5h54.5c5.5,0,9.7,4.1,9.7,9.6c0,5.5-4.1,9.7-9.7,9.7h-54.5v24.8c0,5.5-4.1,9.7-9.7,9.7
	c-5.5,0-9.7-4.1-9.7-9.7v-24.8h-20c-5.5,0-9.7-4.1-9.7-9.7c0-5.5,4.1-9.6,9.7-9.6h20v-23.5H258z"/>
<path fill="none" d="M371.1,302.1c5.5-5.5,9.6-13.8,9.6-22.8c0-9-3.4-16.6-9.6-22.8c-5.5-5.5-13.8-9.6-22.8-9.6h-11.7h-39.3v64.8
	h51.1C357.3,311.8,364.9,308.3,371.1,302.1z"/>
<path fill="#1A1A18" d="M258,354.5c-5.5,0-9.7,4.1-9.7,9.6c0,5.5,4.1,9.7,9.7,9.7h20v24.8c0,5.5,4.1,9.7,9.7,9.7
	c5.5,0,9.7-4.1,9.7-9.7v-24.8h54.5c5.5,0,9.7-4.1,9.7-9.7c0-5.5-4.1-9.6-9.7-9.6h-54.5v-23.5h39.3h0h11.7c13.8,0,26.9-6.2,35.9-15.2
	c9.7-9,15.2-22.1,15.2-35.9c0-13.8-6.2-26.9-15.2-35.9c-9-9.7-22.1-15.2-35.9-15.2h-11.7h-50.4H258c-5.5,0-9.7,3.8-9.7,9
	c0,5.1,4.1,9,9.7,9h20v64.8h-20c-5.5,0-9.7,4.1-9.7,9.7c0,5.5,4.1,9.6,9.7,9.6h20v23.5H258z M297.3,246.9h39.3h11.7
	c9,0,17.2,4.1,22.8,9.6c6.2,6.2,9.6,13.8,9.6,22.8c0,9-4.1,17.3-9.6,22.8c-6.2,6.2-13.8,9.7-22.8,9.7h-51.1V246.9z"/>
<path fill="#1A1A18" d="M368.3,597.3c0-5.5-4.1-9.7-9.6-9.7H175.2c-5.5,0-9.7,4.1-9.7,9.7c0,5.5,4.1,9.7,9.7,9.7h183.5
	C364.2,607,368.3,602.9,368.3,597.3z"/>
<path fill="none" d="M62.8,93.8V75.2H498c12.4,0,23.4,4.8,31.7,13.1s13.1,19.3,13.1,31.7v31.7h28.3V19.3H19.3v132.4h69v-32.4
	c0-6.9-2.8-13.1-7.6-17.9S69.7,93.8,62.8,93.8z"/>
<path fill="none" d="M311.8,693.9h130.4h82.1V119.3c0-6.9-2.8-13.1-7.6-17.9s-11-7.6-17.9-7.6H99.2c5.4,7.4,8.4,16.4,8.4,26.2v65.5
	v515.9V767c0,6.9,2.7,13.1,7.6,17.9c4.8,4.8,11,7.6,17.9,7.6l1.7-0.1c6.2-0.5,11.8-3.8,16.2-8.2c4.8-4.8,7.6-11,7.6-17.9v-18.6
	v-13.1v-21.4c0-5.5,2.1-10.3,5.5-13.8c3.5-3.4,8.3-5.5,13.8-5.5H311.8z"/>
<path fill="none" d="M542.9,151.7h28.3V19.3H19.3v132.4h69v-32.4c0-6.9-2.8-13.1-7.6-17.9s-11-7.6-17.9-7.6V75.2H498
	c12.4,0,23.4,4.8,31.7,13.1s13.1,19.3,13.1,31.7V151.7z"/>
<path fill="none" d="M311.8,693.9h130.4h82.1V119.3c0-6.9-2.8-13.1-7.6-17.9s-11-7.6-17.9-7.6H99.2c5.4,7.4,8.4,16.4,8.4,26.2v65.5
	v515.9V767c0,6.9,2.7,13.1,7.6,17.9c4.8,4.8,11,7.6,17.9,7.6l1.7-0.1c6.2-0.5,11.8-3.8,16.2-8.2c4.8-4.8,7.6-11,7.6-17.9v-18.6
	v-13.1v-21.4c0-5.5,2.1-10.3,5.5-13.8c3.5-3.4,8.3-5.5,13.8-5.5H311.8z"/>
<path fill="none" d="M62.8,93.8V75.2H498c12.4,0,23.4,4.8,31.7,13.1s13.1,19.3,13.1,31.7v31.7h28.3V19.3H19.3v132.4h69v-32.4
	c0-6.9-2.8-13.1-7.6-17.9S69.7,93.8,62.8,93.8z"/>
<path fill="#1A1A18" d="M589.7,699.4c-3.4-3.4-8.3-5.5-13.8-5.5h-33.1V171h28.3c5.5,0,10.3-2.1,13.8-5.5s5.5-8.3,5.5-13.8V19.3
	c0-5.5-2.1-10.3-5.5-13.8C581.5,2,576.7,0,571.1,0H19.3C13.8,0,9,2,5.5,5.5C2.1,8.9,0,13.8,0,19.3v132.4c0,5.5,2.1,10.3,5.5,13.8
	C9,169,13.8,171,19.3,171h69v14.5v515.9v64.9c0,12.4,4.8,23.4,13.1,31.7c8.3,8.3,19.3,13.1,31.7,13.1h417.3h0.7
	c12.1-0.2,22.9-5,31-13.1c8.3-8.3,13.1-19.3,13.1-31.7v-18.6v-13.1v-21.4C595.3,707.7,593.2,702.9,589.7,699.4z M88.3,151.7h-69
	V19.3h551.8v132.4h-28.3V120c0-12.4-4.8-23.4-13.1-31.7S510.4,75.2,498,75.2H62.8v18.6c6.9,0,13.1,2.8,17.9,7.6s7.6,11,7.6,17.9
	V151.7z M158.7,713.2v21.4v13.1v18.6c0,6.9-2.8,13.1-7.6,17.9c-4.4,4.4-10,7.7-16.2,8.2l-1.7,0.1c-6.9,0-13.1-2.7-17.9-7.6
	c-4.8-4.8-7.6-11.1-7.6-17.9v-65.5V185.5V120c0-9.8-3-18.8-8.4-26.2h399.5c6.9,0,13.1,2.8,17.9,7.6s7.6,11,7.6,17.9v574.6h-82.1
	H311.8H178c-5.5,0-10.3,2.1-13.8,5.5C160.7,702.9,158.7,707.7,158.7,713.2z M576,734.6v13.1v18.6c0,6.9-2.8,13.1-7.6,17.9
	c-4.8,4.8-11,7.6-17.9,7.6H170.1c5.1-7.3,7.9-16,7.9-25.5v-18.6v-13.1v-21.4h133.8h130.4H576V734.6z"/>
<path fill="#1A1A18" d="M175.2,558h246.9c5.5,0,9.7-4.1,9.7-9.7c0-5.5-4.1-9.6-9.7-9.6H175.2c-5.5,0-9.7,4.1-9.7,9.6
	C165.5,553.9,169.7,558,175.2,558z"/>
<path fill="#1A1A18" d="M318,462.8c42.1,0,79.3-16.6,106.9-44.1c27.6-27.6,44.1-65.5,44.1-106.9c0-42.1-16.6-79.3-44.1-106.9
	c-27.6-27.6-65.5-44.1-106.9-44.1c-41.4,0-79.3,16.6-106.9,44.1c-27.6,27.6-44.1,65.5-44.1,106.9c0,42.1,16.6,79.3,44.1,106.9
	C238.6,446.3,276.6,462.8,318,462.8z M224.9,218.6C249,194.5,281.4,180,318,180c36.6,0,69,14.5,93.1,38.6
	c24.2,23.4,38.6,56.6,38.6,93.1c0,36.6-14.5,69-38.6,93.1s-56.6,38.6-93.1,38.6c-36.6,0-69-14.5-93.1-38.6
	c-24.2-24.2-38.6-56.6-38.6-93.1C186.2,275.2,200.7,242.8,224.9,218.6z"/>
</svg>
