<svg xmlns="http://www.w3.org/2000/svg" viewBox="0 0 595.3 500" enable-background="new 0 0 595.3 500"><g><path fill="#FEFEFE" d="M499.3 6.8c-5.7-5.7-17-8.5-25.5-5.7l-337.3 85h-79.4c-31.2 0-56.7 25.5-56.7 56.7v113.4c0 31.2 25.5 56.7 56.7 56.7h56.7v56.7c0 5.7 2.8 11.3 5.6 17l85.1 113.4 45.4-34-79.4-104.9v-39.7l306.1 76.5h5.7c5.6 0 11.3-2.8 17-5.6 5.6-5.7 11.3-14.2 11.3-22.7v-340.1c.1-8.6-2.8-17.1-11.3-22.7zm-442.2 136h56.7v113.4h-56.7v-113.4zm396.9 190l-283.5-70.9v-124.7l283.5-70.9v266.5zM539 120.2v158.7c34-11.3 56.7-42.5 56.7-79.4s-22.7-68-56.7-79.3z"/></g></svg>