<svg xmlns="http://www.w3.org/2000/svg" viewBox="0 0 283.5 162.9" enable-background="new 0 0 283.5 162.9"><path fill="#FEFEFE" d="M93.4 11.5c6.7 4.5 10.2 3 14.4 11.1 7.9 15.4 4.6 54.3-3.9 56.8-13 3.7-37.8-50.4-42.7-62.2-2.2-5.4-5.3-9-13.2-9h-39.9c-17.8 0 0 26.5 5.9 38.4 17.5 35.1 28.8 53.1 53.5 82.7 8.9 10.6 3.7 3.9 11.1 11 11.8 11.3 28.9 18.5 46.3 21.3 7.6 1.2 22.7 1.9 30.7.9 18.7-2.4 5.4-15.6 14.1-31.3 12.8-23 34.2 31 57.6 31h47.7c5.8 0 8.3-2.2 8.9-5.6v-2.9c-1-7.6-8.7-18.5-14.7-24.4-3-2.9-3.5-4.2-6.1-7.2-19.5-22.2-37.8-19.9-14.8-48.6 6.5-8.1 54.3-65.2 26.7-65.2-73.9 0-48.3-7.9-73.8 38-5.7 10.2-17.5 31.3-29.1 34-9.9-8.6-5.5-25.5-5.5-35.4-.1-13.6 4.4-31.7-3.6-38.6-10.6-9-60.1-9-69.6 5.2z"/></svg>